# xmcd
# 
# Track frame offsets:
#     183
#     6520
#     20320
#     30433
#     41670
#     50433
#     62208
#     72908
#     88220
#     100483
#     112120
#     123370
#     137883
#     155533
#     174408
#     194958
#     207283
# 
# Disc length: 2941
# 
# Revision: 3
# Processed by: cddbd v1.5.2PL0 Copyright (c) Steve Scherf et al.
# Submitted via: BonkEnc v1.0.15
# 
DISCID=fc0b7b11
DTITLE=Johnny Hallyday - CD 39 Inédits 1962-76
DYEAR=0
DGENRE=Rock and Roll
TTITLE0=J'ai trop de peine
TTITLE1=Je t'écris souvent
TTITLE2=Moi cette fille là
TTITLE3=Deux façons de pleurer
TTITLE4=J'embrasse les filles
TTITLE5=C'est bien lui
TTITLE6=Ca suffit
TTITLE7=Tu as gagné mon amitié
TTITLE8=J'attends minuit
TTITLE9=Le fou du Colorado
TTITLE10=Au nord des îles de Shetland
TTITLE11=La chanson du roulain
TTITLE12=Easy, sois facile avec moi
TTITLE13=Un parmi les autres
TTITLE14=De la race humaine
TTITLE15=Train sans espoir
TTITLE16=Une nuit sans toi
EXTD=
EXTT0=
EXTT1=
EXTT2=
EXTT3=
EXTT4=
EXTT5=
EXTT6=
EXTT7=
EXTT8=
EXTT9=
EXTT10=
EXTT11=
EXTT12=
EXTT13=
EXTT14=
EXTT15=
EXTT16=
PLAYORDER=
